{
    "asset" : {
        "generator" : "Khronos glTF Blender I/O v1.2.18",
        "version" : "2.0"
    },
    "scene" : 0,
    "scenes" : [
        {
            "extras" : {
                "indigo" : {
                    "extraAtm" : 0,
                    "maxnumconsrej" : 1000,
                    "aperture_blades_num" : 8,
                    "super_sample_factor" : 2,
                    "ClayRender" : 0,
                    "splatf_mn_ring" : 0.30000001192092896,
                    "override" : 0,
                    "lens.shift.up" : 0,
                    "bih" : 500000,
                    "aperture_img" : "",
                    "autoChoose" : 1,
                    "tonemapburn" : 6,
                    "tonemapres" : 44,
                    "camfocus" : 0,
                    "aperture_start_angle" : 0.20000000298023224,
                    "mo_blur" : 0,
                    "worldscale" : 1,
                    "colexponent" : 2.200000047683716,
                    "shutter" : 60,
                    "sepmatfile" : 1,
                    "savetmexr" : 0,
                    "envmapemit" : 6500,
                    "rayNudgeExp" : -5,
                    "usegui" : 1,
                    "downsizef_mn_ring" : 0.30000001192092896,
                    "sky_layer" : 1,
                    "opstacle_map" : "",
                    "indigo_out_path" : "",
                    "envmaprot" : -30,
                    "ExecuteIndigo" : 1,
                    "network.sl" : 0,
                    "aperturen_type" : 2,
                    "HaltTime" : -1,
                    "focusdistance" : 0.4847089350223541,
                    "saveigi" : 0,
                    "rayNudgeMant" : 1,
                    "worldscaleexp" : -1,
                    "watermark" : 0,
                    "curfocus" : 0,
                    "threads" : 1,
                    "ExportMeshs" : 0,
                    "sky_layer_toggle" : 1,
                    "tonemaptype" : 2,
                    "HaltSamples" : -1,
                    "logging" : 1,
                    "sepmeshfile" : 1,
                    "tonemapprescale" : 4,
                    "hstop" : 0,
                    "bidirectional" : 1,
                    "backgroundgain" : 1,
                    "filmiso" : 100,
                    "envgain" : 1,
                    "splatf_mn_blur" : 0.30000001192092896,
                    "white balance" : 3,
                    "autoexp" : 0,
                    "DefaultExport" : 0,
                    "tonemapev" : 0,
                    "tonemappostscale" : 1.2000000476837158,
                    "ipofocus" : 0,
                    "sun_layer_toggle" : 1,
                    "mlt" : 0,
                    "objfocus" : 0,
                    "aperture_diffraction" : 0,
                    "tonemapscaleexp" : 0,
                    "downsizef_mn_blur" : 0.30000001192092896,
                    "envmaptype" : 1,
                    "film width" : 35,
                    "backgroundcolor.r" : 0,
                    "lens.shift.right" : 0,
                    "aperture_blade_curvature" : 3,
                    "cam_mo_blur" : 0,
                    "downsize_filter" : 2,
                    "backgroundcolor.g" : 0,
                    "ioverlay" : 0,
                    "backgroundcolor.b" : 0,
                    "splat_filter" : 2,
                    "post_process_diffraction" : 1,
                    "network.wm" : 0,
                    "fstop" : 110,
                    "hybrid" : 0,
                    "sun_layer" : 0,
                    "imagesave" : 60,
                    "autofocus" : 0,
                    "selfocus" : 0,
                    "tonemapscale" : 1,
                    "process_prio" : 1,
                    "envfile" : "E:\\CG\\EXR\\empty_kitchen_latlong.exr",
                    "saveutmexr" : 0,
                    "envtype" : 2,
                    "aperture_blade_offset" : 0.4000000059604645,
                    "envwidth" : 640,
                    "scale size" : 100,
                    "turbidity" : 2.200000047683716
                },
                "vray" : {
                    "RTEngine" : {
                        "enabled" : 0,
                        "bundle_size" : 100
                    },
                    "SettingsGI" : {
                        "on" : 1,
                        "SettingsIrradianceMap" : {
                            "min_rate" : -4,
                            "max_rate" : -3,
                            "subdivs" : 50,
                            "color_threshold" : 0.4000000059604645,
                            "normal_threshold" : 0.30000001192092896,
                            "distance_threshold" : 0.10000000149011612,
                            "auto_save" : 0,
                            "auto_save_file" : "//goke.vrim",
                            "mode" : 0,
                            "file" : "//goke.vrim"
                        },
                        "secondary_engine" : 1,
                        "refract_caustics" : 0,
                        "reflect_caustics" : 1
                    },
                    "exporter" : {
                        "draft" : 0,
                        "use_displace" : 1,
                        "image_to_blender" : 0,
                        "camera_loop" : 0,
                        "animation" : 0,
                        "auto_save_render" : 1,
                        "output" : 1
                    },
                    "VRayEffects" : {
                        "use" : 0,
                        "effects_selected" : -1
                    },
                    "SettingsOutput" : {
                        "img_separateAlpha" : 0
                    },
                    "SettingsOptions" : {
                        "gi_dontRenderImage" : 0
                    },
                    "SettingsColorMapping" : {
                        "type" : 3
                    },
                    "render_channels_use" : 0,
                    "render_channels_index" : -1
                },
                "glTF2ExportSettings" : {
                    "export_apply" : 1,
                    "export_extras" : 1,
                    "export_format" : "GLTF_EMBEDDED",
                    "export_image_format" : "JPEG",
                    "export_lights" : 0,
                    "export_selected" : 1,
                    "export_tangents" : 1
                }
            },
            "name" : "Scene",
            "nodes" : [
                0
            ]
        },
        {
            "extras" : {
                "indigo" : {
                    "extraAtm" : 0,
                    "maxnumconsrej" : 1000,
                    "aperture_blades_num" : 8,
                    "super_sample_factor" : 2,
                    "ClayRender" : 0,
                    "splatf_mn_ring" : 0.30000001192092896,
                    "override" : 0,
                    "lens.shift.up" : 0,
                    "bih" : 500000,
                    "aperture_img" : "",
                    "autoChoose" : 1,
                    "tonemapburn" : 6,
                    "tonemapres" : 44,
                    "camfocus" : 0,
                    "aperture_start_angle" : 0.20000000298023224,
                    "mo_blur" : 0,
                    "worldscale" : 1,
                    "colexponent" : 2.200000047683716,
                    "shutter" : 60,
                    "sepmatfile" : 1,
                    "savetmexr" : 0,
                    "envmapemit" : 6500,
                    "rayNudgeExp" : -5,
                    "usegui" : 1,
                    "downsizef_mn_ring" : 0.30000001192092896,
                    "sky_layer" : 1,
                    "opstacle_map" : "",
                    "indigo_out_path" : "",
                    "envmaprot" : -30,
                    "ExecuteIndigo" : 1,
                    "network.sl" : 0,
                    "aperturen_type" : 2,
                    "HaltTime" : -1,
                    "focusdistance" : 0.4847089350223541,
                    "saveigi" : 0,
                    "rayNudgeMant" : 1,
                    "worldscaleexp" : -1,
                    "watermark" : 0,
                    "curfocus" : 0,
                    "threads" : 1,
                    "ExportMeshs" : 0,
                    "sky_layer_toggle" : 1,
                    "tonemaptype" : 2,
                    "HaltSamples" : -1,
                    "logging" : 1,
                    "sepmeshfile" : 1,
                    "tonemapprescale" : 4,
                    "hstop" : 0,
                    "bidirectional" : 1,
                    "backgroundgain" : 1,
                    "filmiso" : 100,
                    "envgain" : 1,
                    "splatf_mn_blur" : 0.30000001192092896,
                    "white balance" : 3,
                    "autoexp" : 0,
                    "DefaultExport" : 0,
                    "tonemapev" : 0,
                    "tonemappostscale" : 1.2000000476837158,
                    "ipofocus" : 0,
                    "sun_layer_toggle" : 1,
                    "mlt" : 0,
                    "objfocus" : 0,
                    "aperture_diffraction" : 0,
                    "tonemapscaleexp" : 0,
                    "downsizef_mn_blur" : 0.30000001192092896,
                    "envmaptype" : 1,
                    "film width" : 35,
                    "backgroundcolor.r" : 0,
                    "lens.shift.right" : 0,
                    "aperture_blade_curvature" : 3,
                    "cam_mo_blur" : 0,
                    "downsize_filter" : 2,
                    "backgroundcolor.g" : 0,
                    "ioverlay" : 0,
                    "backgroundcolor.b" : 0,
                    "splat_filter" : 2,
                    "post_process_diffraction" : 1,
                    "network.wm" : 0,
                    "fstop" : 110,
                    "hybrid" : 0,
                    "sun_layer" : 0,
                    "imagesave" : 60,
                    "autofocus" : 0,
                    "selfocus" : 0,
                    "tonemapscale" : 1,
                    "process_prio" : 1,
                    "envfile" : "E:\\CG\\EXR\\empty_kitchen_latlong.exr",
                    "saveutmexr" : 0,
                    "envtype" : 2,
                    "aperture_blade_offset" : 0.4000000059604645,
                    "envwidth" : 640,
                    "scale size" : 100,
                    "turbidity" : 2.200000047683716
                },
                "vray" : {
                    "RTEngine" : {
                        "enabled" : 0,
                        "bundle_size" : 100
                    },
                    "SettingsGI" : {
                        "on" : 1,
                        "SettingsIrradianceMap" : {
                            "min_rate" : -4,
                            "max_rate" : -3,
                            "subdivs" : 50,
                            "color_threshold" : 0.4000000059604645,
                            "normal_threshold" : 0.30000001192092896,
                            "distance_threshold" : 0.10000000149011612,
                            "auto_save" : 0,
                            "auto_save_file" : "//goke.vrim",
                            "mode" : 0,
                            "file" : "//goke.vrim"
                        },
                        "secondary_engine" : 1,
                        "refract_caustics" : 0,
                        "reflect_caustics" : 1
                    },
                    "exporter" : {
                        "draft" : 0,
                        "use_displace" : 1,
                        "image_to_blender" : 0,
                        "camera_loop" : 0,
                        "animation" : 0,
                        "auto_save_render" : 1,
                        "output" : 1
                    },
                    "VRayEffects" : {
                        "use" : 0,
                        "effects_selected" : -1
                    },
                    "SettingsOutput" : {
                        "img_separateAlpha" : 0
                    },
                    "SettingsOptions" : {
                        "gi_dontRenderImage" : 0
                    },
                    "SettingsColorMapping" : {
                        "type" : 3
                    },
                    "render_channels_use" : 0,
                    "render_channels_index" : -1
                }
            },
            "name" : "Scene.001"
        }
    ],
    "nodes" : [
        {
            "extras" : {
                "vray" : {}
            },
            "mesh" : 0,
            "name" : "st.593",
            "rotation" : [
                0,
                0,
                0,
                1
            ],
            "translation" : [
                0.11766928434371948,
                0.07925489544868469,
                0.16374559700489044
            ]
        }
    ],
    "materials" : [
        {
            "doubleSided" : true,
            "emissiveFactor" : [
                0,
                0,
                0
            ],
            "extras" : {
                "indigo" : {
                    "blend.path" : "",
                    "precedence" : 10,
                    "sss.uniform" : 1,
                    "exponent.a" : 0,
                    "displace.path" : "",
                    "exponent.c" : 1,
                    "exponent.b" : 10000,
                    "toggle_phong" : 0,
                    "sss.uniformExp" : 0,
                    "sss.r" : 0.5558251738548279,
                    "transparent" : 0,
                    "sss.g" : 0.5633354783058167,
                    "include" : "",
                    "sss.b" : 0.4431704878807068,
                    "rgb.r" : 0.8815365433692932,
                    "albedo.isl" : 0,
                    "abs.r" : 0.09521615505218506,
                    "sss" : 0,
                    "include.matdb" : 0,
                    "rgb.b" : 0.8545825481414795,
                    "sss.phasespec_uni" : 0.49000000953674316,
                    "rgb.g" : 0.8833335041999817,
                    "abs.g" : 0.09255647659301758,
                    "abs.b" : 0.1351109743118286,
                    "sss.gain" : 3,
                    "blend.uv_set" : "default",
                    "blend.a_name" : "",
                    "bump.a" : 0,
                    "bump.b" : 0.20000000298023224,
                    "bump.c" : 0,
                    "exponent.uv_set" : "default",
                    "rgb.r_s" : 0.800000011920929,
                    "specular.type" : 1,
                    "rgb.r_e" : 1,
                    "albedo.a" : 0,
                    "albedo.c" : 0,
                    "albedo.b" : 1,
                    "exponent.shader" : -1,
                    "alt.path" : "",
                    "emitter.scale_measure" : 0,
                    "exponent" : 500,
                    "sss.phasespec" : 1,
                    "sss.type" : 0,
                    "abs.gain" : 5,
                    "displace.shader" : -1,
                    "bump.shader" : -1,
                    "exponent.path" : "",
                    "displace.a" : 0,
                    "displace.c" : 0,
                    "displace.b" : 0.009999999776482582,
                    "eumelanin" : 0.0010000000474974513,
                    "emitter" : 0,
                    "sss.phasespec_r" : 0.5,
                    "nk_data" : "",
                    "emitter.layer" : "default",
                    "blend.b_name" : "",
                    "displace.exp" : 2.200000047683716,
                    "absorption.type" : 0,
                    "blend.factor" : 0.5,
                    "albedo.exponent" : 2.200000047683716,
                    "medium.type" : 0,
                    "alt.shader" : -1,
                    "bump.exponent" : 2.200000047683716,
                    "displace.isl" : 0,
                    "rgb.gain" : 0.800000011920929,
                    "blend.a" : 0,
                    "blend.b" : 1,
                    "blend.c" : 0,
                    "emitter.temperature" : 5000,
                    "sss.phasespec_g" : 0.5,
                    "sss.phasespec_b" : 0.5,
                    "exponent.exponent" : 2.200000047683716,
                    "type" : 2,
                    "bump.path" : "//textures/beton.jpg",
                    "rgb.b_e" : 1,
                    "alt.b" : 0.009999999776482582,
                    "alt.c" : 0,
                    "alt.a" : 0,
                    "sss.phasetype" : 1,
                    "emitter.type" : 0,
                    "melanin" : 0.15000000596046448,
                    "displace.uv_set" : "default",
                    "emitter.mult" : 0,
                    "alt.exp" : 2.200000047683716,
                    "hemoglobin" : 0.0010000000474974513,
                    "emitter.ies" : 0,
                    "diffuse.transmitter" : 0,
                    "exponent.isl" : 0,
                    "emitter.lspreset" : "",
                    "rgb.g_e" : 1,
                    "rgb.g_s" : 0.800000011920929,
                    "alt.uv_set" : "default",
                    "emitter.scale_value" : 1500,
                    "alt.isl" : 0,
                    "ior" : 1.6083842515945435,
                    "albedo.path" : "",
                    "albedo.uv_set" : "default",
                    "emitter.ies_path" : "",
                    "cauchy_b_coeff" : 0,
                    "bump.isl" : 0,
                    "emitter.gain" : 1,
                    "bump.uv_set" : "default",
                    "rgb.b_s" : 0.800000011920929,
                    "blend.exponent" : 1,
                    "turbidity" : 2.200000047683716,
                    "sigma" : 0.20000000298023224,
                    "albedo.shader" : -1
                },
                "vray" : {
                    "BRDFVRayMtl" : {
                        "reflect_color" : [
                            0.5120489001274109,
                            0.5120489001274109,
                            0.5120489001274109
                        ],
                        "brdf_type" : 0,
                        "fresnel" : 1,
                        "fresnel_ior" : 7
                    }
                }
            },
            "name" : "stone_white",
            "pbrMetallicRoughness" : {
                "baseColorFactor" : [
                    0.800000011920929,
                    0.800000011920929,
                    0.800000011920929,
                    1
                ],
                "metallicFactor" : 0,
                "roughnessFactor" : 0.5
            }
        }
    ],
    "meshes" : [
        {
            "extras" : {
                "vray" : {}
            },
            "name" : "Cube.017",
            "primitives" : [
                {
                    "attributes" : {
                        "POSITION" : 0,
                        "NORMAL" : 1,
                        "TANGENT" : 2,
                        "TEXCOORD_0" : 3
                    },
                    "indices" : 4,
                    "material" : 0
                }
            ]
        }
    ],
    "accessors" : [
        {
            "bufferView" : 0,
            "componentType" : 5126,
            "count" : 810,
            "max" : [
                0.010185958817601204,
                0.0043481639586389065,
                0.01020944956690073
            ],
            "min" : [
                -0.010181787423789501,
                -0.004367293789982796,
                -0.010210775770246983
            ],
            "type" : "VEC3"
        },
        {
            "bufferView" : 1,
            "componentType" : 5126,
            "count" : 810,
            "type" : "VEC3"
        },
        {
            "bufferView" : 2,
            "componentType" : 5126,
            "count" : 810,
            "type" : "VEC4"
        },
        {
            "bufferView" : 3,
            "componentType" : 5126,
            "count" : 810,
            "type" : "VEC2"
        },
        {
            "bufferView" : 4,
            "componentType" : 5123,
            "count" : 3840,
            "type" : "SCALAR"
        }
    ],
    "bufferViews" : [
        {
            "buffer" : 0,
            "byteLength" : 9720,
            "byteOffset" : 0
        },
        {
            "buffer" : 0,
            "byteLength" : 9720,
            "byteOffset" : 9720
        },
        {
            "buffer" : 0,
            "byteLength" : 12960,
            "byteOffset" : 19440
        },
        {
            "buffer" : 0,
            "byteLength" : 6480,
            "byteOffset" : 32400
        },
        {
            "buffer" : 0,
            "byteLength" : 7680,
            "byteOffset" : 38880
        }
    ],
    "buffers" : [
        {
            "byteLength" : 46560,
            "uri" : "data:application/octet-stream;base64,"
        }
    ]
}
